<svg width="20" height="25" viewBox="0 0 20 25" fill="none" xmlns="http://www.w3.org/2000/svg">
<g id="apple-seeklogo.com">
<path id="Path 5" d="M16.7001 13.487C16.7048 14.5471 17.0198 15.5827 17.6062 16.4659C18.1926 17.3491 19.0248 18.0413 20.0001 18.457C19.6055 19.6975 19.0328 20.8741 18.3001 21.95C17.2761 23.45 16.2141 24.937 14.5401 24.968C12.8951 24.998 12.3661 23.993 10.4861 23.993C8.60606 23.993 8.01906 24.937 6.46206 24.999C4.84606 25.06 3.61606 23.381 2.58406 21.89C0.475056 18.838 -1.13694 13.273 1.02706 9.51499C1.53524 8.60578 2.27089 7.84418 3.16194 7.30478C4.05298 6.76539 5.06886 6.4667 6.11006 6.43799C7.69706 6.40799 9.19405 7.50499 10.1641 7.50499C11.1341 7.50499 12.9531 6.18499 14.8641 6.37899C15.7501 6.41039 16.6168 6.64669 17.3962 7.06934C18.1756 7.492 18.8464 8.08951 19.3561 8.81499C18.5542 9.30544 17.89 9.99132 17.4255 10.8084C16.9609 11.6255 16.7114 12.5471 16.7001 13.487ZM13.6121 4.35999C14.5393 3.27274 14.9987 1.8628 14.8901 0.437988C13.4905 0.573912 12.1961 1.24012 11.2721 2.29999C10.8114 2.81373 10.459 3.41494 10.2356 4.06779C10.0123 4.72064 9.92265 5.41177 9.97206 6.09999C10.6723 6.10974 11.3653 5.95791 11.9973 5.65631C12.6293 5.35471 13.1832 4.91146 13.6161 4.36099" fill="#D2B57A"/>
</g>
</svg>
